<?xml version="1.0" encoding="UTF-8" standalone="no"?><svg xmlns="http://www.w3.org/2000/svg" xmlns:xlink="http://www.w3.org/1999/xlink" style="isolation:isolate" viewBox="0 0 500 500" width="500pt" height="500pt"><defs><clipPath id="_clipPath_235yXZ4T3bPrPEFCOmAdX2KJl9RSKanL"><rect width="500" height="500"/></clipPath></defs><g clip-path="url(#_clipPath_235yXZ4T3bPrPEFCOmAdX2KJl9RSKanL)"><path d=" M 0 250 C 0 112.021 112.021 0 250 0 C 387.979 0 500 112.021 500 250 C 500 387.979 387.979 500 250 500 C 112.021 500 0 387.979 0 250 Z  M 356.159 63 C 418.352 100.35 460 168.464 460 246.229 C 460 364.114 364.292 459.822 246.407 459.822 C 168.642 459.822 100.528 418.174 63.178 355.981 C 95.258 375.26 132.81 386.346 172.931 386.346 C 290.816 386.346 386.524 290.638 386.524 172.753 C 386.524 132.632 375.438 95.08 356.159 63 Z " fill-rule="evenodd" fill="rgb(255,255,255)"/></g></svg>